PathFileType	4	(X/Y/Z)	..\data\2014025\dynamic\2014025_C4_04.trc
DataRate	CameraRate	NumFrames	NumMarkers	Units	OrigDataRate	OrigDataStartFrame	OrigNumFrames
100.000000	100.000000	4	52	mm	100.000000	133	152
Frame#	Time	L_IAS			L_IPS			R_IPS			R_IAS			L_FTC			L_FLE			L_FME			L_FAX			L_TTC			L_FAL			L_TAM			L_FCC			L_FM1			L_FM2			L_FM5			R_FTC			R_FLE			R_FME			R_FAX			R_TTC			R_FAL			R_TAM			R_FCC			R_FM1			R_FM2			R_FM5			CV7			TV10			SXS			SJN			L_SIA			L_SRS			L_SAA			L_SAE			L_HLE			L_HME			L_UOA			L_RSP			L_UHE			L_HM2			L_HM5			R_SIA			R_SRS			R_SAA			R_SAE			R_HLE			R_HME			R_UOA			R_RSP			R_UHE			R_HM2			R_HM5			
		X1	Y1	Z1	X2	Y2	Z2	X3	Y3	Z3	X4	Y4	Z4	X5	Y5	Z5	X6	Y6	Z6	X7	Y7	Z7	X8	Y8	Z8	X9	Y9	Z9	X10	Y10	Z10	X11	Y11	Z11	X12	Y12	Z12	X13	Y13	Z13	X14	Y14	Z14	X15	Y15	Z15	X16	Y16	Z16	X17	Y17	Z17	X18	Y18	Z18	X19	Y19	Z19	X20	Y20	Z20	X21	Y21	Z21	X22	Y22	Z22	X23	Y23	Z23	X24	Y24	Z24	X25	Y25	Z25	X26	Y26	Z26	X27	Y27	Z27	X28	Y28	Z28	X29	Y29	Z29	X30	Y30	Z30	X31	Y31	Z31	X32	Y32	Z32	X33	Y33	Z33	X34	Y34	Z34	X35	Y35	Z35	X36	Y36	Z36	X37	Y37	Z37	X38	Y38	Z38	X39	Y39	Z39	X40	Y40	Z40	X41	Y41	Z41	X42	Y42	Z42	X43	Y43	Z43	X44	Y44	Z44	X45	Y45	Z45	X46	Y46	Z46	X47	Y47	Z47	X48	Y48	Z48	X49	Y49	Z49	X50	Y50	Z50	X51	Y51	Z51	X52	Y52	Z52	

134	1.33	1645.609130859375	900.182800292969	-391.7639465332032	1426.322021484375	960.4678344726565	-295.7024230957032	1440.410400390625	966.6014404296877	-181.3465270996094	1669.372314453125	909.291931152344	-127.0620346069336	1544.401489257813	838.217224121094	-464.4223632812501	1710.987670898438	490.1805725097657	-425.453826904297	1736.069946289063	477.7645263671876	-271.4652404785157	1688.540649414063	434.3741455078126	-427.7496337890626	1751.119384765625	401.0074768066407	-379.6033630371094	1621.506591796875	94.30089569091798	-382.3650512695313	1655.287475585938	98.17154693603518	-299.3911437988282	1587.425415039063	49.45944595336915	-324.6564941406251	1777.440795898438	38.41679000854493	-328.0926208496094	1756.251953125	57.75944900512697	-380.9131164550782	1713.679931640625	37.55334472656251	-415.1578369140626	1580.766723632813	839.9821777343752	-36.16524887084962	1512.549438476563	474.489715576172	-110.8664245605469	1522.924560546875	471.6167297363282	-277.5091247558594	1466.940551757813	408.1613159179689	-114.9046096801758	1550.103515625	386.1019287109376	-173.4524230957032	1415.296997070313	81.50917053222658	-178.5714416503907	1447.2470703125	89.98541259765626	-263.9347534179688	1377.50634765625	36.92660140991212	-245.3576354980469	1561.938354492188	16.07390785217286	-230.6337280273438	1557.209838867188	37.44807052612305	-175.2122344970703	1503.47216796875	21.97784614562989	-134.0350494384766	1497.286743164063	1413.711059570313	-261.6372375488282	1440.782104492188	1190.282348632813	-240.9859924316407	1685.220581054688	1199.8115234375	-280.0385742187501	1617.044067382813	1341.319458007813	-271.5415649414063	1416.52783203125	1227.31103515625	-337.2631530761719	1450.2353515625	1360.616088867188	-337.3435668945313	1481.77685546875	1366.981811523438	-419.976531982422	1529.276245117188	1372.81982421875	-446.9862365722657	1503.588012695313	1058.9501953125	-519.8129272460939	1500.663818359375	1036.640625	-426.9129333496095	1487.322875976563	1034.408447265625	-473.6461791992189	1624.632934570313	840.0671997070315	-515.9800415039064	1554.989135742188	828.8848266601565	-555.1270751953126	1646.688354492188	759.2992553710939	-530.6005859375001	1556.2861328125	762.1397094726564	-563.1519165039064	1447.460571289063	1225.484619140625	-136.8230743408203	1477.047119140625	1359.15087890625	-162.1092987060547	1532.396362304688	1371.669799804688	-103.7718505859375	1584.048828125	1379.105834960938	-92.89535522460939	1615.79931640625	1066.978759765625	8.004063606262209	1594.2646484375	1038.68359375	-73.05913543701173	1602.462890625	1029.523559570313	-22.26425361633301	1799.072998046875	885.976013183594	-1.529745101928711	1757.4189453125	869.689636230469	48.18735885620119	1841.970825195313	825.5000000000002	20.88724708557129	1751.784423828125	811.3610839843752	57.05220413208009	
135	1.34	1659.454467773438	897.8605957031252	-391.7156677246095	1439.153076171875	957.8754882812502	-297.2222290039063	1452.474609375	965.0327148437502	-183.0125732421875	1681.17822265625	907.1860351562502	-126.7699508666992	1559.40380859375	836.4302368164065	-465.2012634277345	1726.08984375	489.335906982422	-424.7957153320314	1748.657104492188	476.1086730957032	-270.2969665527344	1705.595703125	432.8177490234376	-427.7212219238282	1769.973388671875	402.352020263672	-379.0502319335938	1663.062133789063	88.69506072998048	-386.7534179687501	1695.2890625	93.78710174560548	-303.1543273925782	1631.2275390625	41.32078170776368	-329.8509826660157	1821.407348632813	42.51191329956055	-330.5032043457032	1799.939208984375	61.06031036376955	-383.5342407226563	1759.217895507813	38.49568557739259	-418.5385742187501	1592.243408203125	838.3760375976565	-36.26720809936524	1519.379150390625	473.9473266601564	-111.9049377441407	1530.646850585938	471.1594848632814	-278.3807983398438	1472.91162109375	408.2877502441407	-116.1183319091797	1555.9677734375	384.894012451172	-174.3922424316407	1416.157104492188	82.83102416992189	-179.8094787597657	1448.816162109375	90.37661743164064	-265.2106628417969	1378.23388671875	38.31438827514649	-246.9209442138672	1562.206420898438	15.92389869689942	-230.7538299560547	1557.119750976563	37.39599609375001	-175.439437866211	1502.956665039063	22.42422485351563	-134.9055480957032	1510.239624023438	1412.19384765625	-262.2793273925782	1453.232055664063	1188.669799804688	-240.767807006836	1697.7822265625	1197.614501953125	-280.4733886718751	1629.84228515625	1339.296508789063	-272.2168273925782	1428.829956054688	1225.115356445313	-336.4818115234376	1462.878662109375	1358.436279296875	-337.3970947265626	1494.671875	1364.098266601563	-420.0277404785157	1541.346313476563	1369.849853515625	-447.5656127929689	1510.379028320313	1056.16943359375	-518.8350219726564	1509.869384765625	1033.894775390625	-425.6497192382814	1495.19970703125	1032.30224609375	-472.0758666992189	1626.784545898438	834.7370605468752	-517.6736450195314	1555.72412109375	825.0495605468752	-554.6858520507814	1646.772094726563	753.7907104492189	-533.3101806640626	1555.454833984375	758.5097045898439	-563.1706542968751	1460.651733398438	1224.529663085938	-136.0969696044922	1490.418701171875	1358.052490234375	-162.1456909179688	1546.209228515625	1370.401489257813	-104.0121154785157	1598.004028320313	1377.815673828125	-93.58536529541017	1635.1611328125	1066.28076171875	7.551763057708742	1612.91064453125	1037.248779296875	-72.81512451171876	1621.90087890625	1028.185302734375	-22.26859092712403	1824.167114257813	891.342224121094	-6.144323348999025	1784.231079101563	873.5742187500002	44.38554763793946	1869.406372070313	832.5443115234377	15.04777622222901	1780.556884765625	814.914245605469	52.9842987060547	
136	1.35	1673.4306640625	895.345642089844	-391.8900146484376	1452.082275390625	955.0867309570315	-298.9895019531251	1464.557983398438	963.4794921875002	-184.9999237060547	1692.91943359375	904.866638183594	-126.33642578125	1574.441040039063	834.3299560546877	-466.0343322753907	1740.47900390625	487.9568786621095	-424.3442687988282	1760.272705078125	473.4868469238282	-269.2019042968751	1721.9912109375	431.1345214843751	-427.8216857910157	1788.142578125	403.443572998047	-378.6696777343751	1704.261474609375	84.35659027099611	-391.2172241210939	1734.616943359375	90.54812622070314	-306.9479675292969	1674.644897460938	34.58837509155274	-335.1679992675782	1864.27587890625	47.73380279541016	-332.4789123535157	1842.753540039063	65.47449493408205	-385.7622985839845	1804.048950195313	40.63868713378907	-421.6285705566407	1603.570678710938	836.6770629882815	-36.49524307250977	1526.466796875	473.3428039550782	-112.9563903808594	1538.692016601563	470.5698852539064	-279.2190856933594	1479.215454101563	408.3931884765626	-117.3160400390625	1562.05029296875	383.6181945800782	-175.2995300292969	1417.066772460938	84.10103607177736	-180.9486083984375	1450.32958984375	90.78753662109376	-266.3350830078126	1378.866455078125	39.80018997192384	-248.2528839111329	1562.413818359375	15.79594039916993	-230.8707275390626	1557.009521484375	37.34344863891602	-175.6507568359375	1502.478271484375	22.83830070495606	-135.7016906738282	1523.277221679688	1410.479370117188	-262.9995727539063	1465.671875	1186.854125976563	-240.7582092285157	1710.40478515625	1195.148315429688	-280.8388061523438	1642.687622070313	1337.03759765625	-272.9116210937501	1441.223876953125	1222.7119140625	-335.9436950683594	1475.599975585938	1356.076782226563	-337.6155395507813	1507.717407226563	1361.019775390625	-420.237762451172	1553.616455078125	1366.675903320313	-448.2425842285157	1517.27783203125	1053.307495117188	-517.8768920898439	1519.12744140625	1031.021850585938	-424.4759826660157	1503.19384765625	1030.087768554688	-470.5866699218751	1629.025390625	829.4847412109377	-519.2193603515626	1556.597778320313	821.2641601562502	-554.0595703125001	1647.006713867188	748.4365844726564	-535.9061279296876	1554.909790039063	755.0101928710939	-563.0739135742189	1473.761352539063	1223.395629882813	-135.5452117919922	1503.787231445313	1356.808715820313	-162.2576141357422	1560.012084960938	1368.946411132813	-104.3297195434571	1611.9501953125	1376.308471679688	-94.3512649536133	1654.468139648438	1065.48828125	6.981252670288088	1631.518188476563	1035.6484375	-72.69982147216798	1641.244873046875	1026.760498046875	-22.40740013122559	1848.688598632813	896.721618652344	-10.89882373809815	1810.533569335938	877.5186767578127	40.38372421264649	1896.05908203125	839.540954589844	8.957781791687013	1808.654052734375	818.643249511719	48.69070434570314	
137	1.36	1687.5322265625	892.7207641601565	-392.2565307617189	1465.121826171875	952.1833496093752	-300.9963378906251	1476.712890625	961.971130371094	-187.296859741211	1704.624389648438	902.3879394531252	-125.7743835449219	1589.491088867188	831.9279785156252	-466.8987121582032	1754.35595703125	486.1058044433595	-424.0924682617189	1771.072875976563	470.0131835937501	-268.2037353515626	1737.924072265625	429.356658935547	-428.0417480468751	1805.733642578125	404.2938537597657	-378.3880615234376	1744.64892578125	81.2718963623047	-395.6088867187501	1772.847045898438	88.42221069335939	-310.6510620117188	1717.151123046875	29.27155113220216	-340.4440612792969	1905.626586914063	53.86327743530275	-333.9448242187501	1884.2548828125	70.8046340942383	-387.5088500976564	1847.67724609375	43.81040954589844	-424.3131103515626	1614.8037109375	834.9431152343752	-36.86491775512696	1533.794921875	472.7031555175782	-113.9801406860352	1547.051879882813	469.8418579101564	-279.9971008300782	1485.825439453125	408.498260498047	-118.4578704833985	1568.327270507813	382.3006286621094	-176.1212463378907	1418.02783203125	85.33314514160158	-181.931640625	1451.76220703125	91.25462341308595	-267.2613525390626	1379.395629882813	41.40065002441407	-249.2976074218751	1562.572021484375	15.70014190673828	-230.9652099609376	1556.906372070313	37.30424499511719	-175.8203125	1502.074584960938	23.2091236114502	-136.3776092529297	1536.40771484375	1408.575317382813	-263.7944946289063	1478.126586914063	1184.846313476563	-240.9562072753907	1723.09619140625	1192.446899414063	-281.1469421386719	1655.583374023438	1334.564575195313	-273.6359252929688	1453.7255859375	1220.133911132813	-335.6600646972657	1488.401611328125	1353.564819335938	-338.0047302246094	1520.872924804688	1357.797973632813	-420.6171875000001	1566.080932617188	1363.347412109375	-449.0211791992189	1524.334350585938	1050.417358398438	-516.9453735351564	1528.457397460938	1028.094116210938	-423.388885498047	1511.341674804688	1027.811889648438	-469.1857299804689	1631.406372070313	824.3536376953127	-520.6041870117189	1557.677490234375	817.581726074219	-553.2731323242189	1647.419677734375	743.2489013671876	-538.3336181640626	1554.698486328125	751.6759033203126	-562.8544311523439	1486.801147460938	1222.089599609375	-135.1836853027344	1517.1416015625	1355.433715820313	-162.4557342529297	1573.794189453125	1367.335205078125	-104.7390747070313	1625.873901367188	1374.619018554688	-95.20354461669923	1673.6767578125	1064.647094726563	6.298349380493166	1650.020385742188	1033.938232421875	-72.71273803710939	1660.49169921875	1025.282958984375	-22.6724967956543	1872.591918945313	902.0864257812502	-15.79694271087647	1836.281372070313	881.524108886719	36.19274520874024	1921.897338867188	846.458923339844	2.647449016571045	1836.029296875	822.5433349609377	44.21136856079102	
